name E:\3-PhD\Data\MocapData\ElaboratedData\009\pre\dynamicElaborations\RunL1\RunL1.mot																																				
datacolumns 37																																				
datarows 65																																				
range 0.4315 0.4635																																				
endheader																																				
																																				
time	    ground_force1_vx	    ground_force1_vy	    ground_force1_vz	    ground_force1_px	    ground_force1_py	    ground_force1_pz	    ground_force2_vx	    ground_force2_vy	    ground_force2_vz	    ground_force2_px	    ground_force2_py	    ground_force2_pz	    ground_force3_vx	    ground_force3_vy	    ground_force3_vz	    ground_force3_px	    ground_force3_py	    ground_force3_pz	    ground_force4_vx	    ground_force4_vy	    ground_force4_vz	    ground_force4_px	    ground_force4_py	    ground_force4_pz	    ground_torque1_x	    ground_torque1_y	    ground_torque1_z	    ground_torque2_x	    ground_torque2_y	    ground_torque2_z	    ground_torque3_x	    ground_torque3_y	    ground_torque3_z	    ground_torque4_x	    ground_torque4_y	    ground_torque4_z
0.4315	0	0	0	0	0	0	0	0	0	0	0	0	-411.9409314	1984.406286	5.57843942	-0.52045355	0	0.39403263	0	0	0	0	0	0	0	0	0	0	0	0	0	8.08854346	0	0	0	0
0.432	0	0	0	0	0	0	0	0	0	0	0	0	-411.4598514	1987.740234	4.4067548	-0.51947298	0	0.39402019	0	0	0	0	0	0	0	0	0	0	0	0	0	8.04129274	0	0	0	0
0.4325	0	0	0	0	0	0	0	0	0	0	0	0	-410.8527214	1990.873827	3.18289227	-0.51849443	0	0.39400975	0	0	0	0	0	0	0	0	0	0	0	0	0	7.98521532	0	0	0	0
0.433	0	0	0	0	0	0	0	0	0	0	0	0	-410.1206591	1993.81722	1.91085017	-0.51751835	0	0.39400116	0	0	0	0	0	0	0	0	0	0	0	0	0	7.92053655	0	0	0	0
0.4335	0	0	0	0	0	0	0	0	0	0	0	0	-409.2649057	1996.580171	0.59467044	-0.5165452	0	0.39399431	0	0	0	0	0	0	0	0	0	0	0	0	0	7.8474995	0	0	0	0
0.434	0	0	0	0	0	0	0	0	0	0	0	0	-408.2867861	1999.172027	-0.76158855	-0.51557542	0	0.39398906	0	0	0	0	0	0	0	0	0	0	0	0	0	7.76636599	0	0	0	0
0.4345	0	0	0	0	0	0	0	0	0	0	0	0	-407.1876798	2001.601718	-2.15387433	-0.51460944	0	0.3939853	0	0	0	0	0	0	0	0	0	0	0	0	0	7.67741272	0	0	0	0
0.435	0	0	0	0	0	0	0	0	0	0	0	0	-405.9690017	2003.87776	-3.57815145	-0.51364768	0	0.3939829	0	0	0	0	0	0	0	0	0	0	0	0	0	7.58092752	0	0	0	0
0.4355	0	0	0	0	0	0	0	0	0	0	0	0	-404.6321825	2006.008267	-5.03041046	-0.51269055	0	0.39398173	0	0	0	0	0	0	0	0	0	0	0	0	0	7.47720972	0	0	0	0
0.436	0	0	0	0	0	0	0	0	0	0	0	0	-403.1786434	2008.000956	-6.50668689	-0.51173846	0	0.39398167	0	0	0	0	0	0	0	0	0	0	0	0	0	7.36657239	0	0	0	0
0.4365	0	0	0	0	0	0	0	0	0	0	0	0	-401.6097729	2009.863165	-8.0030892	-0.51079179	0	0.39398261	0	0	0	0	0	0	0	0	0	0	0	0	0	7.24934132	0	0	0	0
0.437	0	0	0	0	0	0	0	0	0	0	0	0	-399.9269152	2011.601855	-9.51582251	-0.50985093	0	0.39398443	0	0	0	0	0	0	0	0	0	0	0	0	0	7.12585068	0	0	0	0
0.4375	0	0	0	0	0	0	0	0	0	0	0	0	-398.1313667	2013.22362	-11.04120057	-0.50891625	0	0.39398701	0	0	0	0	0	0	0	0	0	0	0	0	0	6.99644006	0	0	0	0
0.438	0	0	0	0	0	0	0	0	0	0	0	0	-396.2243705	2014.734686	-12.57565369	-0.50798812	0	0.39399024	0	0	0	0	0	0	0	0	0	0	0	0	0	6.86145515	0	0	0	0
0.4385	0	0	0	0	0	0	0	0	0	0	0	0	-394.207107	2016.14092	-14.11574489	-0.50706689	0	0.39399403	0	0	0	0	0	0	0	0	0	0	0	0	0	6.72124873	0	0	0	0
0.439	0	0	0	0	0	0	0	0	0	0	0	0	-392.0806882	2017.447839	-15.65819347	-0.50615291	0	0.39399826	0	0	0	0	0	0	0	0	0	0	0	0	0	6.57617815	0	0	0	0
0.4395	0	0	0	0	0	0	0	0	0	0	0	0	-389.8461602	2018.660624	-17.19989365	-0.5052465	0	0.39400285	0	0	0	0	0	0	0	0	0	0	0	0	0	6.42660071	0	0	0	0
0.44	0	0	0	0	0	0	0	0	0	0	0	0	-387.5045074	2019.784131	-18.73792058	-0.504348	0	0.39400769	0	0	0	0	0	0	0	0	0	0	0	0	0	6.2728714	0	0	0	0
0.4405	0	0	0	0	0	0	0	0	0	0	0	0	-385.0566558	2020.822898	-20.26953066	-0.50345771	0	0.39401271	0	0	0	0	0	0	0	0	0	0	0	0	0	6.1153437	0	0	0	0
0.441	0	0	0	0	0	0	0	0	0	0	0	0	-382.5034738	2021.781159	-21.79216767	-0.50257594	0	0.39401782	0	0	0	0	0	0	0	0	0	0	0	0	0	5.95436983	0	0	0	0
0.4415	0	0	0	0	0	0	0	0	0	0	0	0	-379.8457768	2022.662846	-23.30347454	-0.50170298	0	0.39402295	0	0	0	0	0	0	0	0	0	0	0	0	0	5.79029812	0	0	0	0
0.442	0	0	0	0	0	0	0	0	0	0	0	0	-377.0843371	2023.471597	-24.80129946	-0.5008391	0	0.39402801	0	0	0	0	0	0	0	0	0	0	0	0	0	5.62347	0	0	0	0
0.4425	0	0	0	0	0	0	0	0	0	0	0	0	-374.2198945	2024.210759	-26.2836897	-0.49998457	0	0.39403296	0	0	0	0	0	0	0	0	0	0	0	0	0	5.45421969	0	0	0	0
0.443	0	0	0	0	0	0	0	0	0	0	0	0	-371.2531647	2024.883398	-27.74888037	-0.49913963	0	0.39403771	0	0	0	0	0	0	0	0	0	0	0	0	0	5.28287552	0	0	0	0
0.4435	0	0	0	0	0	0	0	0	0	0	0	0	-368.1848449	2025.492307	-29.19528856	-0.49830455	0	0.39404222	0	0	0	0	0	0	0	0	0	0	0	0	0	5.10975959	0	0	0	0
0.444	0	0	0	0	0	0	0	0	0	0	0	0	-365.0156208	2026.040021	-30.62151219	-0.49747952	0	0.39404643	0	0	0	0	0	0	0	0	0	0	0	0	0	4.93518528	0	0	0	0
0.4445	0	0	0	0	0	0	0	0	0	0	0	0	-361.7461787	2026.528821	-32.02632328	-0.49666478	0	0.3940503	0	0	0	0	0	0	0	0	0	0	0	0	0	4.75945561	0	0	0	0
0.445	0	0	0	0	0	0	0	0	0	0	0	0	-358.3772175	2026.960741	-33.40865028	-0.49586052	0	0.39405377	0	0	0	0	0	0	0	0	0	0	0	0	0	4.58286454	0	0	0	0
0.4455	0	0	0	0	0	0	0	0	0	0	0	0	-354.9094562	2027.337576	-34.7675564	-0.49506692	0	0.39405681	0	0	0	0	0	0	0	0	0	0	0	0	0	4.40569868	0	0	0	0
0.446	0	0	0	0	0	0	0	0	0	0	0	0	-351.3436366	2027.660886	-36.10222369	-0.49428415	0	0.39405938	0	0	0	0	0	0	0	0	0	0	0	0	0	4.22823678	0	0	0	0
0.4465	0	0	0	0	0	0	0	0	0	0	0	0	-347.6805279	2027.932002	-37.41194253	-0.49351238	0	0.39406145	0	0	0	0	0	0	0	0	0	0	0	0	0	4.05074783	0	0	0	0
0.447	0	0	0	0	0	0	0	0	0	0	0	0	-343.9209339	2028.152027	-38.69609849	-0.49275172	0	0.39406298	0	0	0	0	0	0	0	0	0	0	0	0	0	3.87349091	0	0	0	0
0.4475	0	0	0	0	0	0	0	0	0	0	0	0	-340.0656999	2028.321844	-39.95415245	-0.49200233	0	0.39406393	0	0	0	0	0	0	0	0	0	0	0	0	0	3.69671718	0	0	0	0
0.448	0	0	0	0	0	0	0	0	0	0	0	0	-336.1157091	2028.442119	-41.18561955	-0.49126429	0	0.39406429	0	0	0	0	0	0	0	0	0	0	0	0	0	3.52067098	0	0	0	0
0.4485	0	0	0	0	0	0	0	0	0	0	0	0	-332.0718753	2028.513303	-42.39005446	-0.49053772	0	0.39406402	0	0	0	0	0	0	0	0	0	0	0	0	0	3.34558857	0	0	0	0
0.449	0	0	0	0	0	0	0	0	0	0	0	0	-327.9351388	2028.535638	-43.56704286	-0.4898227	0	0.3940631	0	0	0	0	0	0	0	0	0	0	0	0	0	3.17169666	0	0	0	0
0.4495	0	0	0	0	0	0	0	0	0	0	0	0	-323.7064674	2028.509164	-44.71619189	-0.48911928	0	0.3940615	0	0	0	0	0	0	0	0	0	0	0	0	0	2.99921348	0	0	0	0
0.45	0	0	0	0	0	0	0	0	0	0	0	0	-319.3868558	2028.433721	-45.83711582	-0.48842754	0	0.3940592	0	0	0	0	0	0	0	0	0	0	0	0	0	2.82835106	0	0	0	0
0.4505	0	0	0	0	0	0	0	0	0	0	0	0	-314.977317	2028.308957	-46.92942167	-0.4877475	0	0.39405618	0	0	0	0	0	0	0	0	0	0	0	0	0	2.65931548	0	0	0	0
0.451	0	0	0	0	0	0	0	0	0	0	0	0	-310.4788705	2028.134336	-47.99270126	-0.4870792	0	0.39405241	0	0	0	0	0	0	0	0	0	0	0	0	0	2.49230497	0	0	0	0
0.4515	0	0	0	0	0	0	0	0	0	0	0	0	-305.8925393	2027.90914	-49.02652956	-0.48642266	0	0.39404786	0	0	0	0	0	0	0	0	0	0	0	0	0	2.32750903	0	0	0	0
0.452	0	0	0	0	0	0	0	0	0	0	0	0	-301.2193531	2027.632477	-50.03046269	-0.48577787	0	0.39404252	0	0	0	0	0	0	0	0	0	0	0	0	0	2.1651102	0	0	0	0
0.4525	0	0	0	0	0	0	0	0	0	0	0	0	-296.4603491	2027.303288	-51.00403187	-0.48514483	0	0.39403636	0	0	0	0	0	0	0	0	0	0	0	0	0	2.0052859	0	0	0	0
0.453	0	0	0	0	0	0	0	0	0	0	0	0	-291.616567	2026.920347	-51.94673747	-0.48452352	0	0.39402936	0	0	0	0	0	0	0	0	0	0	0	0	0	1.84820773	0	0	0	0
0.4535	0	0	0	0	0	0	0	0	0	0	0	0	-286.6890467	2026.482268	-52.85804905	-0.48391391	0	0.39402149	0	0	0	0	0	0	0	0	0	0	0	0	0	1.69403927	0	0	0	0
0.454	0	0	0	0	0	0	0	0	0	0	0	0	-281.678836	2025.987521	-53.7374105	-0.48331595	0	0.39401273	0	0	0	0	0	0	0	0	0	0	0	0	0	1.54293581	0	0	0	0
0.4545	0	0	0	0	0	0	0	0	0	0	0	0	-276.5870039	2025.434437	-54.58424481	-0.48272959	0	0.39400306	0	0	0	0	0	0	0	0	0	0	0	0	0	1.39504642	0	0	0	0
0.455	0	0	0	0	0	0	0	0	0	0	0	0	-271.4146508	2024.821227	-55.3979553	-0.48215478	0	0.39399246	0	0	0	0	0	0	0	0	0	0	0	0	0	1.25051496	0	0	0	0
0.4555	0	0	0	0	0	0	0	0	0	0	0	0	-266.162914	2024.14599	-56.17792683	-0.48159143	0	0.3939809	0	0	0	0	0	0	0	0	0	0	0	0	0	1.10947829	0	0	0	0
0.456	0	0	0	0	0	0	0	0	0	0	0	0	-260.8329761	2023.40673	-56.92353122	-0.48103946	0	0.39396837	0	0	0	0	0	0	0	0	0	0	0	0	0	0.97206397	0	0	0	0
0.4565	0	0	0	0	0	0	0	0	0	0	0	0	-255.4260812	2022.601364	-57.63413618	-0.48049879	0	0.39395484	0	0	0	0	0	0	0	0	0	0	0	0	0	0.83839057	0	0	0	0
0.457	0	0	0	0	0	0	0	0	0	0	0	0	-249.9435531	2021.727739	-58.30911328	-0.47996931	0	0.39394029	0	0	0	0	0	0	0	0	0	0	0	0	0	0.70856975	0	0	0	0
0.4575	0	0	0	0	0	0	0	0	0	0	0	0	-244.3868096	2020.783638	-58.94784285	-0.4794509	0	0.3939247	0	0	0	0	0	0	0	0	0	0	0	0	0	0.58270664	0	0	0	0
0.458	0	0	0	0	0	0	0	0	0	0	0	0	-238.7573693	2019.766793	-59.54971834	-0.47894345	0	0.39390805	0	0	0	0	0	0	0	0	0	0	0	0	0	0.46089761	0	0	0	0
0.4585	0	0	0	0	0	0	0	0	0	0	0	0	-233.0568596	2018.6749	-60.11415377	-0.47844684	0	0.39389032	0	0	0	0	0	0	0	0	0	0	0	0	0	0.34322835	0	0	0	0
0.459	0	0	0	0	0	0	0	0	0	0	0	0	-227.2870282	2017.505624	-60.64059391	-0.47796092	0	0.3938715	0	0	0	0	0	0	0	0	0	0	0	0	0	0.22977481	0	0	0	0
0.4595	0	0	0	0	0	0	0	0	0	0	0	0	-221.4497557	2016.256613	-61.12852343	-0.47748554	0	0.39385157	0	0	0	0	0	0	0	0	0	0	0	0	0	0.12060495	0	0	0	0
0.46	0	0	0	0	0	0	0	0	0	0	0	0	-215.5470605	2014.925504	-61.57747264	-0.47702057	0	0.39383052	0	0	0	0	0	0	0	0	0	0	0	0	0	0.01577852	0	0	0	0
0.4605	0	0	0	0	0	0	0	0	0	0	0	0	-209.5810957	2013.50993	-61.98702176	-0.47656584	0	0.39380832	0	0	0	0	0	0	0	0	0	0	0	0	0	-0.0846551	0	0	0	0
0.461	0	0	0	0	0	0	0	0	0	0	0	0	-203.5541449	2012.007524	-62.35680641	-0.47612118	0	0.39378497	0	0	0	0	0	0	0	0	0	0	0	0	0	-0.18065803	0	0	0	0
0.4615	0	0	0	0	0	0	0	0	0	0	0	0	-197.4686216	2010.415929	-62.68652485	-0.47568642	0	0.39376047	0	0	0	0	0	0	0	0	0	0	0	0	0	-0.27220227	0	0	0	0
0.462	0	0	0	0	0	0	0	0	0	0	0	0	-191.3270691	2008.7328	-62.97594414	-0.47526139	0	0.3937348	0	0	0	0	0	0	0	0	0	0	0	0	0	-0.359268	0	0	0	0
0.4625	0	0	0	0	0	0	0	0	0	0	0	0	-185.1321534	2006.955807	-63.22490304	-0.47484591	0	0.39370795	0	0	0	0	0	0	0	0	0	0	0	0	0	-0.44184435	0	0	0	0
0.463	0	0	0	0	0	0	0	0	0	0	0	0	-178.886647	2005.08264	-63.43331263	-0.47443978	0	0.39367992	0	0	0	0	0	0	0	0	0	0	0	0	0	-0.5199315	0	0	0	0
0.4635	0	0	0	0	0	0	0	0	0	0	0	0	-172.5934141	2003.111005	-63.60115737	-0.47404282	0	0.39365072	0	0	0	0	0	0	0	0	0	0	0	0	0	-0.59354108	0	0	0	0
